# xmcd
#
# Track frame offsets:
#	150
#	15962
#	36055
#	49268
#	66552
#	83452
#	99047
#	114750
#	135518
#	152665
#	167830
#	184613
#	199732
#	213492
#	231086
#	247496
#	261471
#	278501
#	306476
#
# Disc length: 4248 seconds
#
# Revision: 1
# Processed by: cddbd v1.4PL0 Copyright (c) Steve Scherf et al.
# Submitted via: audiograbber 1.80
#
DISCID=01109613
DTITLE=Various Artist - Hott Country 029
DYEAR=1900
DGENRE=
TTITLE0=Clint Black - The Shoes You're Wearing
TTITLE1=Faith Hill/ Tim McGraw - Just To Hear You Say That You Loved Me
TTITLE2=Pam Tillis - I Said A Prayer
TTITLE3=Trace Adkins - Big Time
TTITLE4=Dwight Yoakam - Things Change
TTITLE5=Suzy Bogguss - Somebody To Love
TTITLE6=Lari White - Stepping Stone
TTITLE7=Vince Gill - If You Ever Have Forever In Mind
TTITLE8=Clay Walker - Ordinary People
TTITLE9=Restless Heart - No End To This Road
TTITLE10=Toby Keith - Double Wide Paradise
TTITLE11=Kinleys - Dance To The Beat
TTITLE12=Patty Loveless - High On Love
TTITLE13=John Michael Montgomery - Cover You In Kisses
TTITLE14=Mila Mason - The Strong One
TTITLE15=Rhett Akins - Drivin' My Life Away
TTITLE16=Big House - Faith
TTITLE17=Melodie Crittenden - I Should've Known
TTITLE18=Data - Data Track
EXTD=
EXTT0=
EXTT1=
EXTT2=
EXTT3=
EXTT4=
EXTT5=
EXTT6=
EXTT7=
EXTT8=
EXTT9=
EXTT10=
EXTT11=
EXTT12=
EXTT13=
EXTT14=
EXTT15=
EXTT16=
EXTT17=
EXTT18=
PLAYORDER=
